<svg width="885" height="871" fill="none" xmlns="http://www.w3.org/2000/svg"><path d="M406.104 722.83c-35.171 20.332-72.039 33.555-114.017 33.382-46.789-.197-93.172-31.592-122.484-66.048-10.891-12.797-20.415-27.588-22.623-44.243-5.086-38.478 30.125-49.423 61.829-48.935 17.87.267 35.153 5.219 52.243 10.129 28.373 8.161 60.014 8.889 86.633 22.562 8.935 4.605 16.152 10.792 26.046 13.512 15.392 4.236 32.109 4.482 47.769 8.031 13.375 3.057 28.85 9.298 31.372 22.778 2.571 13.828-10.219 25.32-21.873 33.179-8.245 5.589-16.514 10.825-24.895 15.653Z" fill="url(#a)"/><path d="M157.8 267.685C198.798 157.432 322.155 86.982 438.386 96.193c56.049 4.45 108.249 29.517 157.407 56.771 43.329 24.019 86.233 50.864 120.646 86.957 23.495 24.635 43.703 56.113 59.886 86.157 24.213 44.991 28.069 109.657-35.141 120.331-14.83 2.506-28.718.354-43.467-.892-11.933-1.017-22.188 3.858-34.077 4.846-29.922 2.493-60.269-1.316-89.551-7.31-59.682-12.242-116.976-34.699-177.41-43.433a392.26 392.26 0 0 0-148.565 7.087c-20.51 4.988-41.715 11.702-62.299 7.027-50.739-11.545-45.348-77.504-36.869-115.942a221.249 221.249 0 0 1 8.854-30.107Z" fill="url(#b)"/><path d="M657.509 161.678c12.06 6.523 56.821 21.431 50.553-7.393-1.571-7.179-6.504-13.314-12.189-17.461-6.508-4.764-12.991-6.511-18.638-12.534-6.881-7.258-14.304-13.845-22.172-19.677-16.151-12.192-34.1-22.717-53.231-24.68-13.417-1.37-34.041 4.852-36.029 22.104-2.902 25.116 34.649 20.391 47.841 26.055 12.514 5.353 21.842 17.534 32.871 26.329a73.485 73.485 0 0 0 10.994 7.257Z" fill="url(#c)"/><path d="M453.693 174.827c25.597 7.692 47.206 23.296 71.491 34.178 40.431 18.114 88.299 12.122 131.742 20.965 44.3 9.029 81.421 30.83 105.265 69.516 30.792 49.931 48.249 114.003 47.022 173.389-1.358 65.37-29.856 115.552-79.462 156.513-49.577 40.936-108.763 68.869-170.249 86.7a505.688 505.688 0 0 1-17.883 4.84c-134.774 33.84-326.056 30.332-407.516-103.401a279.081 279.081 0 0 1-2.208-3.692 217.117 217.117 0 0 1-20.448-47.599c-17.49-58.903-23.171-127.254-15.958-188.256 4.842-41.065 29.832-73.083 56.176-103.561 37.013-42.818 87.188-71.543 140.672-88.692 39.606-12.697 84.675-24.831 126.558-18.75a238.282 238.282 0 0 1 34.798 7.85Z" fill="url(#d)"/><path d="M767.258 591.85c-23.657 33.025-51.792 60.275-90.106 77.427-42.707 19.114-97.909 9.638-138.821-9.665-15.199-7.168-29.975-16.715-38.854-30.978-20.5-32.957 7.064-57.447 36.149-70.076 16.39-7.126 34.177-9.741 51.771-12.314 29.215-4.266 58.34-16.649 88.228-15.169 10.04.511 19.165 3.171 29.301 1.569 15.769-2.487 31.1-9.157 46.83-12.381 13.446-2.73 30.117-3.426 37.974 7.815 8.044 11.537 1.13 27.281-6.246 39.246-5.206 8.491-10.581 16.671-16.226 24.526Z" fill="url(#e)"/><path d="M371.432 412.302c-.341 0-.684-.108-.977-.334-.267-.21-6.596-5.209-11.429-15.406-4.432-9.351-8.368-25.028-1.96-46.641 4.346-14.662 8.702-25.085 12.543-34.287 6.974-16.694 12.014-28.756 12.421-54.328.013-.875.659-1.626 1.613-1.565a1.592 1.592 0 0 1 1.569 1.616c-.417 26.183-5.823 39.123-12.667 55.506-3.811 9.125-8.129 19.465-12.428 33.965-11.686 39.402 12.053 58.442 12.295 58.626.69.541.814 1.54.277 2.234a1.588 1.588 0 0 1-1.257.614ZM501.799 161.035c-.238 17.334-14.483 31.197-31.82 30.959-17.334-.239-31.194-14.484-30.958-31.821.238-17.334 14.486-31.194 31.82-30.958 17.334.239 31.197 14.486 30.958 31.82Z" fill="#000C3E"/><path d="M368.394 401.089s9.657 18.769 47.414 24.556c37.755 5.785 66.941-8.52 96.216 1.318 29.275 9.841 70.883-4.872 78.904-17.264 8.024-12.393 3.073-147.417-20.351-169.52-23.424-22.104-143.785-38.159-169.144-11.041-25.358 27.121-49.883 157.13-33.039 171.951Z" fill="#000C3E"/><path d="M582.938 289.38c-.783 57.128-47.729 102.805-104.86 102.022-57.128-.782-102.805-47.732-102.023-104.86.786-57.128 47.733-102.805 104.861-102.022 57.128.786 102.805 47.732 102.022 104.86Z" fill="#000C3E"/><path d="M394.966 286.087s7.232 125.433 92.235 128.838c85 3.404 80.714-173.465 49.6-189.562-31.114-16.093-159.214-9.892-141.835 60.724Z" fill="#FFCEB0"/><path d="M482.744 310.891s17.127 38.254 13.017 40.914c-4.111 2.657-16.329 2.491-19.686-.271-3.356-2.761-.063-44.808 6.669-40.643Z" fill="#F5A473"/><path d="M457.633 324.426a7.975 7.975 0 0 1-8.173 7.773 7.97 7.97 0 0 1-7.773-8.171 7.976 7.976 0 1 1 15.946.398ZM526.01 319.045a7.976 7.976 0 0 1-8.174 7.773 7.97 7.97 0 0 1-7.772-8.171c.108-4.403 3.767-7.884 8.173-7.776a7.975 7.975 0 0 1 7.773 8.174ZM460.202 217.554s-30.084 15.441-35.216 43.204c-5.135 27.764-.461 98.434-32.781 95.955 0 0-65.754-138.517 67.997-139.159M476.256 217.774c-2.714 2.042 31.423 1.148 51.503 24.346 20.083 23.198 26.122 82.223 29.167 83.247 3.045 1.028 13.331-73.632-8.597-95.468-21.929-21.833-56.629-23.748-72.073-12.125Z" fill="#41294A"/><path d="M549.725 330.584s7.378-31.62 21.817-20.771c14.438 10.85 2.396 43.994-11.544 47.306-13.936 3.313-17.626-10.153-10.273-26.535ZM415.746 328.746s-6.51-31.811-21.241-21.362c-14.728 10.449-3.599 43.915 10.242 47.609 13.844 3.69 17.9-9.667 10.999-26.247Z" fill="#FFCEB0"/><path d="M514.183 290.911s15.012-7.92 24.261 3.458c8.136 10.003-10.433 1.896-17.267 3.191-6.838 1.299-15.867.732-6.994-6.649ZM454.527 293.793s-15.397-7.143-24.054 4.69c-7.614 10.407 10.516 1.362 17.41 2.31 6.892.945 15.884-.083 6.644-7ZM508.732 375.18s-9.793-14.798-20.388-13.866c-10.599.935-18.722 14.575-20.147 15.148 0 0 16.539 7.767 40.535-1.282" fill="#41294A"/><path d="M449.172 306.667c-13.258 0-24.193 10.793-24.378 24.054-.086 6.51 2.364 12.67 6.908 17.341a24.228 24.228 0 0 0 17.143 7.375l.34.003c13.258 0 24.194-10.789 24.375-24.051.185-13.442-10.601-24.531-24.047-24.718l-.341-.004Zm.013 51.955-.385-.003c-7.362-.099-14.244-3.064-19.38-8.34-5.135-5.278-7.906-12.24-7.808-19.602.207-14.993 12.571-27.191 27.56-27.191l.385.003c15.2.21 27.392 12.746 27.185 27.942-.203 14.992-12.568 27.191-27.557 27.191ZM518.038 301.156c-13.261 0-24.197 10.792-24.378 24.053-.185 13.44 10.604 24.532 24.047 24.716l.341.003c13.261 0 24.197-10.789 24.378-24.05.089-6.513-2.364-12.673-6.904-17.344-4.544-4.664-10.631-7.286-17.144-7.375l-.34-.003Zm.01 51.954-.382-.003c-15.203-.21-27.395-12.746-27.188-27.942.207-14.992 12.568-27.191 27.56-27.191l.385.003c7.363.099 14.245 3.064 19.377 8.339 5.138 5.279 7.91 12.24 7.808 19.603-.207 14.992-12.571 27.191-27.56 27.191Z" fill="#FFFCF6"/><path d="M423.887 326.727a1.63 1.63 0 0 1-.548-.096l-10.204-3.748a1.594 1.594 0 0 1-.944-2.045 1.6 1.6 0 0 1 2.042-.942l10.201 3.745a1.594 1.594 0 0 1 .945 2.046 1.588 1.588 0 0 1-1.492 1.04ZM542.873 319.496a1.591 1.591 0 0 1-.474-3.111l13.946-4.353a1.59 1.59 0 0 1 1.992 1.044 1.59 1.59 0 0 1-1.044 1.995l-13.946 4.355c-.155.048-.318.07-.474.07Z" fill="#FFFCF6"/><path d="M475.759 246.942s.029 31.731 18.931 37.462c18.9 5.733 67.52 3.204 67.027-4.55-4.452-70.008-37.36-66.486-64.844-75.446-48.2-15.708-87.622 62.992-81.72 81.593 5.902 18.597 46.584 1.231 55.292-1.384 8.706-2.619 3.882-24.181 5.314-37.675" fill="#000C3E"/><path opacity=".21" d="M427.015 354.112s42.88-24.742 61.7-21.283c18.82 3.462 51.85 4.003 53.345 10.754 1.499 6.749-41.875 3.707-55.216 5.005-13.341 1.298-64.557 16.656-59.829 5.524Z" fill="#DB5C5D"/><path d="M451.013 337.556a1.59 1.59 0 0 1-.599-3.064c4.312-1.757 5.11-3.141 5.117-3.153.283-.834 1.155-1.222 1.995-.926.83.283 1.247 1.25.964 2.084-.201.585-1.286 2.666-6.879 4.941-.198.08-.398.118-.598.118ZM516.524 334.188c-1.282 0-3.446-.388-6.844-2.046a1.587 1.587 0 0 1-.735-2.126 1.591 1.591 0 0 1 2.125-.731c4.191 2.039 5.75 1.699 5.769 1.699.811-.341 1.677.057 2.02.865.344.808-.095 1.763-.907 2.11-.21.089-.661.229-1.428.229Z" fill="#DB5C5D"/><path d="M475.128 331.541a1.59 1.59 0 0 1-.159-3.173l17.073-1.743c.856-.108 1.654.544 1.743 1.419a1.588 1.588 0 0 1-1.422 1.744l-17.073 1.743c-.054.006-.108.01-.162.01Z" fill="#FFFCF6"/><path d="M451.487 191.565c-.232 0-.471-.05-.693-.162-9.027-4.387-14.487-10.646-16.237-18.603-3.881-17.669 11.903-37.217 12.578-38.041a1.587 1.587 0 0 1 2.236-.223c.681.557.783 1.556.226 2.237-.156.191-15.485 19.195-11.931 35.352 1.53 6.955 6.414 12.479 14.518 16.421a1.59 1.59 0 0 1-.697 3.019ZM487.817 196.294a1.59 1.59 0 0 1-1.05-2.787c.184-.163 18.429-16.386 17.576-32.909-.366-7.111-4.276-13.363-11.623-18.584a1.589 1.589 0 1 1 1.842-2.59c8.18 5.809 12.543 12.882 12.959 21.021.923 18.063-17.856 34.751-18.657 35.454a1.589 1.589 0 0 1-1.047.395ZM582.447 405.181c-.461 0-.919-.198-1.234-.589a1.591 1.591 0 0 1 .229-2.237c.21-.171 21.136-17.649 15.075-45.298-2.336-10.659-6.43-22.387-10.767-34.802-7.519-21.531-15.295-43.796-15.928-65.381a1.595 1.595 0 0 1 1.546-1.639c.824.029 1.61.665 1.636 1.543.62 21.095 8.311 43.126 15.749 64.427 4.369 12.511 8.496 24.325 10.872 35.168 6.488 29.606-15.946 48.267-16.176 48.451a1.587 1.587 0 0 1-1.002.357Z" fill="#000C3E"/><path d="M588.098 291.551c-.051 0-.105-.003-.159-.006a1.594 1.594 0 0 1-1.426-1.741c2.749-27.837-3.108-50.43-17.404-67.163-23.019-26.933-60.418-29.405-60.79-29.428a1.587 1.587 0 0 1-1.495-1.683c.047-.875.802-1.568 1.677-1.492.391.022 39.138 2.58 63.026 30.535 14.881 17.417 20.99 40.815 18.152 69.543a1.588 1.588 0 0 1-1.581 1.435Z" fill="#000C3E"/><path d="M474.154 378.321s15.854-11.124 30.013-1.588c0 0-16.532 6.195-30.013 1.588ZM484.644 389.741c-1.565 0-2.911-.016-3.741-.029a1.59 1.59 0 0 1-1.566-1.616c.013-.879.614-1.591 1.617-1.566 6.007.08 13.185-.067 14.302-.49a1.596 1.596 0 0 1 2.055.913 1.586 1.586 0 0 1-.904 2.053c-1.591.617-7.496.735-11.763.735ZM407.48 346.203a1.59 1.59 0 0 1-1.534-2.02c4.353-15.6-7.203-25.645-7.321-25.747a1.591 1.591 0 0 1-.181-2.243 1.589 1.589 0 0 1 2.243-.178c.541.458 13.22 11.483 8.323 29.027a1.591 1.591 0 0 1-1.53 1.161ZM555.92 350.003c-.035 0-.067 0-.105-.003a1.596 1.596 0 0 1-1.486-1.69c1.19-18.463 10.038-28.333 10.417-28.743a1.585 1.585 0 0 1 2.243-.102c.649.592.694 1.597.105 2.246-.086.095-8.476 9.523-9.586 26.803a1.596 1.596 0 0 1-1.588 1.489Z" fill="#DB5C5D"/><path d="M523.972 401.941s5.059 56.593-1.654 65.544c-6.714 8.953-49.234 2.236-60.425 0-11.19-2.237-11.212-95.837-8.953-89.515 18.683 52.215 69.744 6.007 71.032 23.971Z" fill="#FFCEB0"/><path d="M456.986 407.539s30.166 14.499 64.459-3.052c0 0 2.666 21.083 0 25.944-2.663 4.862-56.985 8.336-67.679-15.625 0 0 .134-8.308 3.22-7.267" fill="#F5A473"/><path d="M292.249 850.876h390.373s19.94-339.402-28.96-376.31c-48.903-36.911-264.176-18.473-314.858 13.055-50.682 31.528-46.555 363.255-46.555 363.255Z" fill="#FB4C47"/><path d="M487.153 460.778s-15.047 130.463-8.479 148.621c6.563 18.159-1.846 98.666-4.519 109.131-2.675 10.464-83.781 14.909-104.71 6.538-20.93-8.371 5.332-234.023 17.047-275.77 11.719-41.751 99.372-17.153 100.661 11.48Z" fill="#05BA6E"/><path d="M248.969 300.932s32.629 62.493 55.496 63.072c22.87.579 99.989-93.336 128.424-94.304 28.439-.964 52.858 1.795 52.97-4.982.111-6.781-39.552-14.181-39.552-14.181s57.36 3.652 45.495-2.622c-11.861-6.274-40.287-11.916-40.287-11.916s41.226 1.664 41.525-2.745c.299-4.41-42.922-10.904-42.922-10.904s52.594-1.68 42.976-8.915c-9.622-7.236-27.729-4.095-76.705 3.385-48.98 7.48-159.787 72.868-167.42 84.112Z" fill="#FFCEB0"/><path d="M306.214 297.938s52.196 31.092 29.469 66.327c-24.2 37.519-22.845 26.373-27.029 41.553-4.187 15.18 64.787 44.745 67.924 57.739 3.137 12.991-29.377 172.775-59.833 166.217-26.51-5.705-173.83-89.308-195.002-172.854-16.411-64.77 117.359-223.198 184.471-158.982Z" fill="#FB4C47"/><path d="M442.845 662.398s-57.834 127.403-36.571 144.464c21.264 17.057 38.398 5.943 57.202 17.016 18.807 11.072 36.847 5.536 51.954-4.098 15.107-9.638-24.21-136.389-40.472-148.457-16.261-12.071-29.182-15.546-32.113-8.925Z" fill="#fff"/><path d="M635.001 465.5s31.098 3.796 55.509 48.5c18.314 33.541 53.794 229.529 0 257.454-53.794 27.923-104.249 13.317-123.774-5.501-19.527-18.818 15.214-115.799 38.372-123.038 23.16-7.236 29.893-177.415 29.893-177.415Z" fill="#FB4C47"/><path d="M645.071 462.496s1.454-9.062-43.329-28.441c-35.737-15.467-66.349 10.636-120.862 13.446-54.512 2.812-49.593-18.795-88.153-8.753-59.504 15.491-12.128 54.496 7.045 58.874 19.173 4.378 83.409 112.363 245.299-35.126Z" fill="#05BA6E"/><path d="M488.78 353.6s-.166 3.691 1.953 4.025c2.119.334 6.036-.849 5.027-5.822 0 0-5.313 1.708-6.98 1.797Z" fill="#fff"/><path d="M709.514 659.318a3.187 3.187 0 0 1-3.169-2.835c-2.65-3.064-20.446-9.481-32.317-13.764-23.519-8.485-34.066-12.682-36.335-17.273-1.925-3.892-1.063-9.504.029-16.609 1.727-11.244 3.881-25.244-3.259-38.728-12.329-23.287-11.155-57.828-11.097-59.285.07-1.757 1.587-3.163 3.299-3.058a3.186 3.186 0 0 1 3.061 3.299c-.016.344-1.161 34.306 10.363 56.066 8.123 15.348 5.695 31.139 3.923 42.67-.85 5.52-1.648 10.735-.614 12.826 1.928 2.974 20.5 9.675 32.788 14.107 27.693 9.991 37.309 14.01 36.472 19.854a3.179 3.179 0 0 1-3.144 2.73ZM626.5 633.159c-.277 0-.557-.035-.84-.112-10.512-2.867-26.844-5.851-27.006-5.883a3.177 3.177 0 0 1-2.562-3.697c.315-1.731 1.967-2.895 3.701-2.561.677.121 16.761 3.061 27.541 6a3.184 3.184 0 0 1-.834 6.253ZM683.653 790.54c-.05 0-.098 0-.146-.004-58.894-2.669-117.571-27.757-120.744-51.62-.995-7.499-1.715-11.251-2.16-13.106-1.19-.591-1.912-1.858-1.699-3.242.404-2.621 2.179-3.551 3.589-3.551h.035c3.204.035 4.267 1.913 6.545 19.062 2.462 18.524 55.884 43.434 114.72 46.1a3.182 3.182 0 0 1-.14 6.361Z" fill="#B31B1F"/><path d="M578.077 734.226a3.184 3.184 0 0 1-3.105-3.885c.137-.614 14.053-61.958 27.06-106.085.497-1.687 2.278-2.654 3.952-2.151a3.178 3.178 0 0 1 2.151 3.951c-12.95 43.931-26.819 105.077-26.956 105.691a3.186 3.186 0 0 1-3.102 2.479ZM302 600.994a3.18 3.18 0 0 1-3.149-3.652c.327-2.196 8.183-54.042 18.963-78.303 10.48-23.576 15.845-47.481 15.899-47.719.375-1.715 2.071-2.788 3.796-2.418a3.185 3.185 0 0 1 2.415 3.799c-.22.999-5.559 24.766-16.294 48.925-10.43 23.472-18.41 76.129-18.489 76.658a3.179 3.179 0 0 1-3.141 2.71ZM253.497 419.977c-8.469 0-17.961-.515-28.409-1.845a3.182 3.182 0 0 1-2.756-3.557c.22-1.744 1.852-2.956 3.557-2.756 31.818 4.054 54.421.322 66.072-2.221-5.803-1.855-13.933-3.662-22.046-3.22-18.257.859-44.971-15.45-46.1-16.15a3.18 3.18 0 0 1-1.034-4.378 3.175 3.175 0 0 1 4.378-1.034c.261.159 26.192 16.001 42.428 15.205 15.467-.814 33.784 6.074 35.448 9.03.595 1.053.547 2.421-.13 3.424-.63.925-1.935 1.482-3.08 1.412-.503.058-1.992.414-3.44.758-6.958 1.667-22.294 5.329-44.888 5.332ZM331.708 351.594a3.18 3.18 0 0 1-2.866-1.795c-.08-.162-8.025-16.3-21.553-22.695-15.359-7.264-32.728-32.581-33.46-33.653a3.185 3.185 0 0 1 .837-4.423 3.19 3.19 0 0 1 4.42.837c.171.248 17.127 24.958 30.926 31.483 15.591 7.379 24.2 24.939 24.56 25.68a3.179 3.179 0 0 1-1.483 4.245 3.116 3.116 0 0 1-1.381.321Z" fill="#B31B1F"/><path d="M479.497 536.501a1.59 1.59 0 0 1-1.553-1.944c.077-.337 7.665-33.51 9.886-50.361 3.459-26.271-8.307-35.435-8.425-35.524a1.593 1.593 0 0 1-.328-2.224 1.583 1.583 0 0 1 2.215-.337c.55.404 13.417 10.207 9.691 38.499-2.237 17.003-9.86 50.322-9.936 50.653a1.588 1.588 0 0 1-1.55 1.238ZM385.663 488.657l-3.16-.366s2.469-21.48 3.758-32.04c1.301-10.652 4.34-17.926 4.47-18.231a1.594 1.594 0 0 1 2.084-.85 1.598 1.598 0 0 1 .847 2.087c-.032.07-3.001 7.197-4.242 17.382-1.288 10.551-3.757 32.015-3.757 32.018Z" fill="#08824F"/><path d="M476.008 841.386c-18.145 0-28.123-.599-41.932-1.426-17.764-1.066-42.088-2.523-98.933-3.407a3.178 3.178 0 0 1-3.131-3.23c.029-1.756 1.575-3.22 3.23-3.134 56.985.885 81.392 2.351 99.213 3.42 13.7.818 23.595 1.413 41.553 1.413 22.479 0 42.645-2.463 62.149-4.842 17.121-2.094 33.29-4.067 50.621-4.452 36.969-.814 64.596-.003 64.869 0a3.186 3.186 0 0 1 3.084 3.277c-.055 1.757-1.537 3.058-3.274 3.087-.274-.01-27.745-.824-64.536 0-17.015.375-33.035 2.332-49.994 4.403-19.692 2.406-40.052 4.891-62.919 4.891Z" fill="#B31B1F"/><path d="M620.143 798.932c-1.581 0-3.165-.709-4.546-2.796-4.299-6.494-5.597-7.029-13.908-5.75-7.518 1.174-10.487-4.155-12.453-7.677-.655-1.178-1.279-2.288-1.823-2.718-1.464-1.154-5.12.233-6.666 1.085l-1.543-2.78c.675-.376 6.669-3.573 10.182-.802 1.04.824 1.775 2.141 2.628 3.662 1.899 3.395 3.865 6.892 9.188 6.087 9.514-1.47 12.056-.398 17.048 7.136 1.324 2.005 2.469 1.731 5.998-.327 2.679-1.572 6.742-3.943 9.771.289l-2.584 1.852c-1.18-1.639-2.249-1.343-5.584.604-1.594.933-3.649 2.135-5.708 2.135Z" fill="#fff"/><path d="M583.124 649.085s-75.999-27.481-108.971-13.424c-32.972 14.054-60.144 50.287-55.111 52.683 5.034 2.399 31.97-18.492 31.97-18.492s-27.468 27.757-22.374 30.535c5.094 2.777 31.563-12.043 31.563-12.043s-18.476 19.752-10.541 21.263c7.935 1.512 24.948-14.763 42.689-15.374 17.745-.614 40.106 13.408 62.289 17.357 22.18 3.945 28.486-62.505 28.486-62.505Z" fill="#FFCEB0"/><path d="M697.818 634.84a3.18 3.18 0 0 1-.595-.057c-.223-.039-22.603-4.27-49.358-9.711a3.182 3.182 0 0 1-2.485-3.751 3.173 3.173 0 0 1 3.751-2.482c26.711 5.428 49.053 9.65 49.276 9.695a3.175 3.175 0 0 1 2.532 3.716 3.178 3.178 0 0 1-3.121 2.59Z" fill="#B31B1F"/><path fill-rule="evenodd" clip-rule="evenodd" d="M485.41 134.769c-.831 0-1.734.097-2.713.29-2.385.479-3.93 1.638-4.858 3.649-4.137 8.954 4.585 30.278 10.817 42.877 3.851-13.976 8.466-37.337 1.945-44.699-1.256-1.415-2.965-2.117-5.191-2.117Zm3.429 57.28c.1.019.201.033.303.041a2.903 2.903 0 0 0 2.03.021c4.25-1.549 41.672-15.584 46.333-31.756 1.121-3.888.332-7.723-2.28-11.082-4.443-5.72-9.243-6.4-12.49-5.968-9.211 1.229-18.278 13.129-24.927 24.435 2.352-12.877 3.258-27.748-2.886-34.684-2.167-2.448-6.249-5.073-13.354-3.658-4.17.832-7.274 3.217-8.97 6.892-6.278 13.597 8.164 42.879 12.977 51.954-6.069 1.171-12.173 1.435-18.012 1.039-12.579-.855-23.729-4.767-30.386-9.046l-2.379 3.701c7.366 4.735 19.254 8.837 32.467 9.735 6.929.47 14.278.064 21.574-1.624Zm35.488-43.078c-.273 0-.55.016-.827.058-9.756 1.298-21.543 21.989-27.775 35.078 12.955-5.455 33.503-15.874 36.232-25.348.614-2.133.202-4.018-1.289-5.942-2.007-2.582-4.086-3.846-6.341-3.846Z" fill="#FFD310"/><path d="M62.27 243.75h113.245a24.002 24.002 0 0 1 18.703 8.96l33.24 41.338a24.003 24.003 0 0 0 19.425 8.949l212.967-6.401" stroke="#FFB2B1" stroke-width="5" stroke-linejoin="round"/><path d="M74.361 244.265a9.119 9.119 0 1 1-18.238 0 9.119 9.119 0 0 1 18.238 0Z" fill="#FF383D"/><path d="M515.77 358.046h168.814a24 24 0 0 1 21.111 12.584l31.249 57.789a24 24 0 0 0 21.111 12.585h82.785" stroke="#FFB2B1" stroke-width="5" stroke-linejoin="round"/><path d="M844.944 440.905a9.118 9.118 0 0 1-9.118 9.118 9.118 9.118 0 0 1-9.118-9.118 9.118 9.118 0 1 1 18.236 0Z" fill="#FF383D"/><path d="M51.74 742.834h178.293a24 24 0 0 0 22.094-14.627l56.413-132.974a24 24 0 0 1 22.094-14.627h207.175" stroke="#FFB2B1" stroke-width="5" stroke-linejoin="round"/><path d="M66.987 743.241a9.118 9.118 0 0 1-9.119 9.118 9.118 9.118 0 0 1-9.118-9.118 9.118 9.118 0 0 1 9.118-9.119 9.118 9.118 0 0 1 9.119 9.119Z" fill="#FF383D"/><path d="M55.511 503.07h203.311a23.998 23.998 0 0 0 18.97-9.298l42.736-55.143a23.998 23.998 0 0 1 18.97-9.298h157.223" stroke="#FFB2B1" stroke-width="5" stroke-linejoin="round"/><path d="M65.76 503.586a9.118 9.118 0 0 1-9.118 9.118 9.118 9.118 0 1 1 0-18.236 9.118 9.118 0 0 1 9.119 9.118Z" fill="#FF383D"/><path d="M590.738 754.401h91.108a24.002 24.002 0 0 0 18.719-8.98l25.531-31.816a24 24 0 0 1 18.718-8.979h94.181" stroke="#FFA6A6" stroke-width="5" stroke-linejoin="round"/><path d="M844.943 703.913a9.118 9.118 0 0 1-9.118 9.118 9.119 9.119 0 1 1 0-18.237 9.118 9.118 0 0 1 9.118 9.119Z" fill="#FF383D"/><path d="M840.839 222.859h-126.28a24 24 0 0 0-16.457 6.531l-28.535 26.881a23.999 23.999 0 0 1-16.457 6.531H539.12" stroke="#FFB2B1" stroke-width="5" stroke-linejoin="round"/><path d="M844.941 222.146a9.118 9.118 0 0 1-9.119 9.118 9.118 9.118 0 0 1-9.118-9.118 9.119 9.119 0 1 1 18.237 0Z" fill="#FF383D"/><defs><linearGradient id="a" x1="144.615" y1="651.802" x2="208.866" y2="780.175" gradientUnits="userSpaceOnUse"><stop stop-color="#FFC8C8"/><stop offset="1" stop-color="#FFF2F5"/></linearGradient><linearGradient id="b" x1="776.18" y1="248.499" x2="254.511" y2="38.237" gradientUnits="userSpaceOnUse"><stop stop-color="#fff"/><stop offset="1" stop-color="#FFD5D5"/></linearGradient><linearGradient id="c" x1="708.946" y1="153.536" x2="547.873" y2="126.967" gradientUnits="userSpaceOnUse"><stop stop-color="#FFD3D3"/><stop offset="1" stop-color="#FFF6F6"/></linearGradient><linearGradient id="d" x1="70.431" y1="428.025" x2="827.765" y2="428.025" gradientUnits="userSpaceOnUse"><stop stop-color="#FFF8F5"/><stop offset="1" stop-color="#FFDEDE"/></linearGradient><linearGradient id="e" x1="758.009" y1="609.534" x2="559.623" y2="627.818" gradientUnits="userSpaceOnUse"><stop stop-color="#FFC2C2"/><stop offset="1" stop-color="#fff"/></linearGradient></defs></svg>