<svg width="966" height="936" fill="none" xmlns="http://www.w3.org/2000/svg"><path d="M280.243 361.946c-.127 6.543 4.988 12.128 11.957 13.659a243.241 243.241 0 0 1 .599 34.387 250.937 250.937 0 0 1-1.924 20.077 127.816 127.816 0 0 0-21.268 1.396 61.977 61.977 0 0 1-7.418-11.981 62.814 62.814 0 0 1-5.897-22.278c6.794-3.043 10.696-9.919 8.902-16.442-2.02-7.356-10.476-11.499-18.891-9.223-8.416 2.259-13.614 10.035-11.594 17.391 1.847 6.697 9.032 10.731 16.667 9.68 3.101 5.275 6.483 13.139 6.824 22.913a46.87 46.87 0 0 1-1.243 12.485 123.844 123.844 0 0 0-25.452 9.528c-3.883-4.171-8.006-9.105-11.995-14.893a131.18 131.18 0 0 1-12.965-23.599c5.46-4.717 7.217-12.163 3.805-17.87-3.909-6.554-13.185-8.305-20.697-3.933-7.509 4.372-10.417 13.256-6.497 19.81 3.399 5.69 10.847 7.772 17.661 5.338a134.145 134.145 0 0 1 14.658 22.608c3.16 6.127 5.575 12 7.421 17.322a124.278 124.278 0 0 0-20.412 15.409c-8.113-2.128-17.6-5.755-27.139-12.01a90.766 90.766 0 0 1-20.054-17.996c3.818-6.231 3.138-14.018-2.016-18.402-5.837-4.987-15.185-3.745-20.881 2.801-5.71 6.511-5.606 15.835.233 20.804 5.154 4.384 13.026 3.958 18.726-.71a88.923 88.923 0 0 1 20.942 16.996 87.506 87.506 0 0 1 15.714 24.511 123.49 123.49 0 0 0-14.881 25.391 55.83 55.83 0 0 1-11.064-5.212 57.989 57.989 0 0 1-7.69-5.699c2.76-6.899.648-14.585-5.315-17.987-6.658-3.83-15.619-.887-19.999 6.568-4.382 7.455-2.537 16.587 4.134 20.417 5.862 3.351 13.499 1.482 18.232-4.08a88.872 88.872 0 0 1 9.555 4.115 92.662 92.662 0 0 1 10.433 6.019 78.49 78.49 0 0 0-1.034 2.759c-3.965 10.791-6.422 22.28-7.174 34.239a108.727 108.727 0 0 1-17.749 5.049 108.357 108.357 0 0 1-33.541 1.188c-1.433-7.014-7.067-12.211-13.755-12.144-7.708.077-13.886 7.115-13.8 15.726.086 8.627 6.405 15.558 14.113 15.48 6.803-.068 12.407-5.569 13.57-12.783 8.548-1.651 20.524-2.798 34.442-.537a98.576 98.576 0 0 1 16.782 4.338 121.239 121.239 0 0 0 6.826 32.811c-2.313 1.467-4.744 2.797-7.614 3.991-5.685 2.353-11.024 3.398-15.472 3.843-3.615-6.696-11.092-10.083-17.651-7.652-7.214 2.682-10.572 11.397-7.498 19.473 3.074 8.058 11.413 12.428 18.628 9.729 6.224-2.324 9.566-9.125 8.392-16.124a86.981 86.981 0 0 1 14.703-5.697 80.134 80.134 0 0 1 8.656-2c3.881 9.408 8.909 18.212 14.901 26.294a117.346 117.346 0 0 1-10.909 13.104c-9.719 10.066-19.723 16.812-27.745 21.259-5.464-4.782-13.226-5.556-18.527-1.45-6.066 4.706-6.617 14.019-1.233 20.801 5.385 6.766 14.665 8.447 20.73 3.759 5.358-4.177 6.404-11.911 2.86-18.347 5.654-6.354 14.588-14.638 27.486-21.099 5.898-2.965 11.642-5.04 17.003-6.521a138.82 138.82 0 0 0 3.786 3.859 126.685 126.685 0 0 0 21.486 16.695 91.017 91.017 0 0 1-2.999 8.919 92.594 92.594 0 0 1-13.425 23.272c-6.992-2.295-14.486.093-17.688 6.006-3.639 6.699-.354 15.434 7.337 19.497 7.688 4.081 16.872 1.936 20.509-4.798 3.198-5.895 1.042-13.354-4.75-17.836a94.421 94.421 0 0 1 12.138-23.973 97.143 97.143 0 0 1 5.622-7.223 125.312 125.312 0 0 0 41.227 13.539c.571 5.926.882 12.325.736 19.198a163.839 163.839 0 0 1-2.718 26.436c-7.688.251-14.074 5.394-14.737 12.29-.731 7.592 5.718 14.399 14.402 15.217 8.683.8 16.312-4.687 17.039-12.261.649-6.757-4.391-12.865-11.627-14.723a175.021 175.021 0 0 1 6.407-45.157c3.343.245 6.721.333 10.136.299a127.047 127.047 0 0 0 23.711-2.447c4.465 6.531 9.546 15.527 13.165 27.024a101.708 101.708 0 0 1 4.608 26.414c-6.812 2.678-11.013 9.192-9.667 15.737 1.536 7.448 9.709 12.115 18.256 10.394 8.549-1.721 14.232-9.171 12.695-16.619-1.328-6.458-7.617-10.797-14.818-10.742a159.011 159.011 0 0 1-6.493-26.099 158.063 158.063 0 0 1-1.886-30.374c10.578-3.567 20.498-8.538 29.563-14.631a80.22 80.22 0 0 1 6.698 9.484 80.663 80.663 0 0 1 8.308 18.914c-6.157 3.889-8.994 11.085-6.4 17.252 2.965 7.016 11.894 10.04 19.941 6.724 5.05-2.086 8.57-6.175 9.741-10.675.703-2.651.587-5.451-.515-8.067a11.869 11.869 0 0 0-1.214-2.179c-3.506-5.115-10.69-7.235-17.501-4.992a117.157 117.157 0 0 1-8.043-18.743 116.859 116.859 0 0 1-3.463-13.186 122.662 122.662 0 0 0 13.798-12.577c.406-.422.812-.861 1.189-1.282a103.687 103.687 0 0 1 23.718 14.219 102.999 102.999 0 0 1 18.688 19.436c-4.182 5.94-4.013 13.679.785 18.381 5.469 5.373 14.889 4.756 21.037-1.377 6.135-6.098 6.685-15.428 1.213-20.784-4.748-4.667-12.481-4.815-18.446-.754a135.59 135.59 0 0 1-19.98-18.171 136.508 136.508 0 0 1-16.92-23.438 123.582 123.582 0 0 0 15.899-31.125A92.426 92.426 0 0 1 420.988 596a96.422 96.422 0 0 1 25.123 10.064c-1.378 7.164 1.998 14.193 8.348 16.548 7.21 2.659 15.541-1.722 18.61-9.79 3.069-8.05-.297-16.75-7.52-19.444-6.272-2.32-13.387.674-17.143 6.818-7.456-1.648-16.281-4.291-25.773-8.51a131.21 131.21 0 0 1-12.702-6.536 120.896 120.896 0 0 0 3.906-26.76 181.111 181.111 0 0 1 24.358-3.549 178.42 178.42 0 0 1 34.747.73c1.442 6.979 7.075 12.159 13.748 12.092 7.708-.077 13.885-7.115 13.798-15.76-.086-8.611-6.403-15.524-14.111-15.446-6.646.066-12.164 5.323-13.491 12.295a208.286 208.286 0 0 1-34.737 1.479 209.346 209.346 0 0 1-24.394-2.452 120.664 120.664 0 0 0-4.645-27.858c1.323-.778 2.699-1.54 4.114-2.285a96.029 96.029 0 0 1 25.134-9.124c3.712 6.173 10.837 9.268 17.14 6.961 7.234-2.613 10.656-11.311 7.653-19.405-3.012-8.076-11.316-12.516-18.55-9.887-6.417 2.326-9.831 9.441-8.425 16.664a67.711 67.711 0 0 1-25.574 8.781 56.56 56.56 0 0 1-4.068.406c-3.582-9.898-8.426-19.209-14.326-27.761a158.19 158.19 0 0 1 16.332-17.369 158.27 158.27 0 0 1 27.928-20.425c5.451 4.712 13.155 5.452 18.428 1.381 6.061-4.723 6.609-14.018 1.225-20.801-5.38-6.766-14.655-8.448-20.728-3.759-5.237 4.071-6.366 11.58-3.087 17.915a189.728 189.728 0 0 1-26.645 22.047 186.606 186.606 0 0 1-20.253 12.068 129.219 129.219 0 0 0-9.126-9.842 125.594 125.594 0 0 0-17.105-13.868c2.1-7.728 5.2-16.649 9.892-26.125a142.776 142.776 0 0 1 14.138-22.931c6.861 2.245 14.239-.021 17.485-5.794 3.763-6.649.627-15.437-6.983-19.641-7.622-4.203-16.836-2.197-20.599 4.451-3.282 5.809-1.298 13.287 4.356 17.858a107.325 107.325 0 0 1-12.478 23.802 108.4 108.4 0 0 1-18.797 20.699 125.84 125.84 0 0 0-19.736-8.1c.091-3.689.385-7.607.959-11.648a100.854 100.854 0 0 1 7.282-25.855c7.305.501 13.948-3.637 15.561-10.107 1.847-7.395-3.519-15.065-11.99-17.137-8.472-2.055-16.83 2.256-18.676 9.668-1.627 6.488 2.335 13.215 9.085 16.157a92.67 92.67 0 0 1-5.793 26.171 93.482 93.482 0 0 1-4.762 10.451 124.443 124.443 0 0 0-19.572-3.075 256.47 256.47 0 0 1-1.076-20.413 252.099 252.099 0 0 1 1.898-34.307c7.018-1.289 12.316-6.682 12.457-13.208.14-7.621-6.813-13.936-15.534-14.074-8.721-.157-15.909 5.882-16.051 13.486Z" fill="#FFE8E8"/><g filter="url(#a)"><path d="M439.455 457.979c-1.882.688-2.919 2.746-2.596 4.879a75.562 75.562 0 0 1-9.751 3.971 78.352 78.352 0 0 1-5.941 1.678 38.116 38.116 0 0 0-2.718-5.838 19.042 19.042 0 0 1 2.612-3.415 19.44 19.44 0 0 1 5.716-4.125c1.61 1.578 3.998 1.917 5.665.69 1.88-1.382 2.14-4.222.573-6.342-1.563-2.121-4.349-2.726-6.229-1.344-1.71 1.261-2.078 3.732-.946 5.767-1.168 1.457-3.044 3.279-5.797 4.456a14.557 14.557 0 0 1-3.7 1.03 37.04 37.04 0 0 0-5.495-6.117 40.33 40.33 0 0 1 8.267-11.289c1.942 1.017 4.259.689 5.516-.904 1.445-1.826.934-4.633-1.133-6.266-2.067-1.632-4.921-1.469-6.364.36-1.254 1.587-1.036 3.915.402 5.566a41.166 41.166 0 0 1-4.856 6.63 41.116 41.116 0 0 1-4.136 4.006 37.544 37.544 0 0 0-6.625-4.047 27.618 27.618 0 0 1 .47-8.975 27.543 27.543 0 0 1 2.951-7.64c2.195.387 4.344-.665 5.033-2.602.787-2.196-.586-4.693-3.076-5.573-2.481-.889-5.132.171-5.914 2.365-.689 1.937.291 4.108 2.245 5.198a26.944 26.944 0 0 1-7.853 14.917 37.906 37.906 0 0 0-8.871-1.386c-.04-1.179.041-2.415.282-3.693.197-1.016.472-1.95.788-2.797 2.271.015 4.234-1.43 4.556-3.486.367-2.3-1.45-4.499-4.056-4.909-2.606-.41-5.012 1.12-5.378 3.423-.317 2.022 1.049 3.967 3.153 4.685a26.82 26.82 0 0 1-.133 3.147 27.983 27.983 0 0 1-.581 3.605c-.303.001-.601.003-.9.014a37.529 37.529 0 0 0-10.557 1.764 32.525 32.525 0 0 1-3.376-4.442 32.314 32.314 0 0 1-3.997-9.319c1.846-1.179 2.716-3.341 1.967-5.218-.862-2.163-3.545-3.126-5.993-2.149-2.454.978-3.744 3.525-2.881 5.688.761 1.909 2.943 2.879 5.129 2.41a29.354 29.354 0 0 1 3.908 9.644c.378 1.839.552 3.583.592 5.208a37.569 37.569 0 0 0-8.623 5.551 14.832 14.832 0 0 1-1.969-1.704 16.277 16.277 0 0 1-2.784-3.934c1.517-1.759 1.669-4.24.26-5.819-1.552-1.736-4.406-1.719-6.377.04-1.965 1.757-2.303 4.59-.746 6.324 1.342 1.497 3.648 1.687 5.518.582a25.945 25.945 0 0 1 3.229 3.513 23.791 23.791 0 0 1 1.515 2.217 37.778 37.778 0 0 0-5.881 7.105 35.76 35.76 0 0 1-4.931-1.624 35.744 35.744 0 0 1-9.094-5.467c.77-2.068.144-4.34-1.606-5.38-2.005-1.189-4.723-.314-6.073 1.953-1.344 2.265-.812 5.066 1.188 6.256 1.776 1.048 4.098.487 5.549-1.223a27.721 27.721 0 0 1 12.736 9.481c-.235.489-.471.99-.689 1.493a38.35 38.35 0 0 0-2.423 7.9c-.91.09-1.869.144-2.873.141a28.459 28.459 0 0 1-8.108-1.209c-.107-2.224-1.606-4.072-3.643-4.32-2.309-.285-4.445 1.607-4.766 4.223-.327 2.617 1.287 4.968 3.606 5.248 2.032.249 3.926-1.183 4.574-3.311a29.04 29.04 0 0 1 8.167.77c.945.228 1.832.496 2.675.785a37.514 37.514 0 0 0 .63 13.112 50.29 50.29 0 0 1-5.4 2.33 50.84 50.84 0 0 1-7.843 2.158c-.91-2.139-3.075-3.369-5.116-2.794-2.247.634-3.487 3.204-2.773 5.74.718 2.535 3.116 4.078 5.358 3.446 1.999-.565 3.193-2.66 2.935-4.904a54.197 54.197 0 0 1 13.59-3.188c.294.969.637 1.93 1.02 2.889a37.878 37.878 0 0 0 3.283 6.41 31.415 31.415 0 0 1-13.317 10.916c-1.507-1.623-3.825-2.087-5.546-.984-1.959 1.256-2.4 4.075-.977 6.293s4.17 2.995 6.129 1.739c1.698-1.088 2.251-3.34 1.45-5.363a48.981 48.981 0 0 1 15.208-8.604 37.302 37.302 0 0 0 7.4 6.711 24.473 24.473 0 0 1-1.977 2.936 24.882 24.882 0 0 1-4.493 4.432c-1.782-1.305-4.145-1.308-5.623.104-1.68 1.611-1.569 4.462.255 6.362 1.146 1.192 2.697 1.732 4.109 1.564a3.846 3.846 0 0 0 2.247-1.037c.182-.177.35-.373.49-.583 1.078-1.553.899-3.812-.484-5.483a36.21 36.21 0 0 1 4.474-4.338 36.232 36.232 0 0 1 3.387-2.434 37.017 37.017 0 0 0 5.59 2.691 31.314 31.314 0 0 1-4.984 15.668c-2.151-.521-4.342.382-5.161 2.254-.938 2.135.265 4.721 2.687 5.775 2.409 1.054 5.133.177 6.065-1.957.815-1.853.014-4.048-1.796-5.28a41.124 41.124 0 0 1 7.855-14.997 38.022 38.022 0 0 0 10.619 1.038c.351 1.239.649 2.606.835 4.094.409 3.24.21 6.047-.133 8.191-2.196.404-3.834 2.132-3.814 4.182.027 2.325 2.186 4.188 4.824 4.161 2.633-.026 4.749-1.936 4.731-4.269-.022-2.023-1.652-3.697-3.816-4.076a40.708 40.708 0 0 1-.381-8.202c.088-1.534.256-2.967.481-4.302a37.417 37.417 0 0 0 8.065-1.858 53.913 53.913 0 0 1 3.67 6.471 53.271 53.271 0 0 1 3.58 9.87c-1.835 1.178-2.7 3.338-1.953 5.21.862 2.164 3.545 3.126 6.003 2.145 2.449-.976 3.734-3.52 2.871-5.683-.743-1.865-2.846-2.839-4.981-2.442a62.083 62.083 0 0 1-4.21-9.623 62.435 62.435 0 0 1-1.959-7.144 37.374 37.374 0 0 0 7.446-4.389c.366.287.734.59 1.101.907a28.744 28.744 0 0 1 5.345 6.072c-1.358 1.728-1.464 4.078-.118 5.599 1.534 1.749 4.39 1.751 6.374.011 1.977-1.742 2.339-4.573.8-6.32-1.364-1.551-3.767-1.726-5.676-.531a20.275 20.275 0 0 1-5.855-7.336 37.558 37.558 0 0 0 6.363-7.106 48.247 48.247 0 0 1 6.739 2.681 47.809 47.809 0 0 1 8.876 5.611c-.75 2.056-.122 4.309 1.615 5.344 2.01 1.186 4.723.312 6.072-1.954 1.345-2.264.814-5.063-1.187-6.256-1.733-1.025-4-.513-5.451 1.111a57.548 57.548 0 0 1-9.199-5.069 56.34 56.34 0 0 1-5.653-4.372 38.01 38.01 0 0 0 3.908-10.012 44.372 44.372 0 0 1 16.625 1.346c.107 2.182 1.558 4.01 3.56 4.286 2.308.325 4.475-1.531 4.846-4.139.368-2.613-1.209-4.987-3.517-5.312-2.016-.282-3.935 1.104-4.623 3.202a33.041 33.041 0 0 1-16.114-3.891c.236-2.126.293-4.285.161-6.456a31.025 31.025 0 0 1 11.604-1.825c.654 2.114 2.559 3.527 4.582 3.267 2.313-.298 3.917-2.658 3.585-5.273-.337-2.615-2.479-4.492-4.796-4.193-2.03.259-3.518 2.119-3.622 4.346a28.668 28.668 0 0 1-8.103 1.261 28.831 28.831 0 0 1-3.503-.186 37.043 37.043 0 0 0-1.256-5.854 79.51 79.51 0 0 1 5.71-2.56 78.235 78.235 0 0 1 10.001-3.259c1.133 1.835 3.251 2.732 5.129 2.05 2.191-.803 3.235-3.461 2.324-5.933-.906-2.474-3.414-3.832-5.6-3.031Z" fill="#FFD3DC"/></g><g opacity=".62"><path d="M414.319 770.925c-37.623 16.161-76.1 25.004-118.094 19.831-46.807-5.77-89.491-42.718-114.725-80.696-9.376-14.106-17.147-30.045-17.373-46.978-.507-39.117 36.038-45.878 67.712-41.613 17.855 2.396 34.563 9.411 51.083 16.361 27.427 11.548 59.009 16.046 84.022 32.901 8.395 5.674 14.881 12.725 24.46 16.627 14.901 6.073 31.603 8.31 46.854 13.728 13.023 4.653 27.769 12.742 28.688 26.535.925 14.146-13.245 24.125-25.846 30.603-8.917 4.612-17.817 8.867-26.781 12.701Z" fill="url(#b)"/><path d="M239.723 277.325c57.023-97.099 185.05-142.948 293.082-114.893 52.094 13.537 97.123 45.867 138.919 79.752 36.842 29.864 72.812 62.321 99.236 102.08 18.042 27.138 31.844 60.18 42.092 91.2 15.326 46.446 8.182 108.048-53.182 107.574-14.398-.109-27.131-4.453-40.827-8.086-11.079-2.947-21.559-.062-32.93-1.112-28.623-2.637-56.594-11.285-83.199-21.817-54.22-21.487-104.486-52.206-159.999-70.512a375.513 375.513 0 0 0-141.229-18.082c-20.165 1.284-41.273 4.079-59.897-3.76-45.906-19.339-29.831-80.618-15.431-115.439a211.537 211.537 0 0 1 13.365-26.905Z" fill="url(#c)"/><path d="M735.327 259.067c11.001 8.73 53.488 31.748 52.306 1.558-.305-7.52-4.186-14.588-9.18-19.784-5.714-5.965-11.942-8.883-16.562-15.966-5.646-8.547-11.958-16.515-18.855-23.8-14.115-15.178-30.342-28.993-49.287-34.384-13.288-3.776-35.199-1.178-40.281 15.868-7.405 24.815 31.311 26.746 43.606 34.81 11.667 7.631 18.903 21.581 28.459 32.418a75.13 75.13 0 0 0 9.794 9.28Z" fill="url(#d)"/><path d="M541.326 242.136c22.846 11.518 40.616 29.83 61.695 44.135 35.093 23.814 81.216 26.144 120.694 41.721 40.255 15.895 71.614 42.634 87.643 83.076 20.705 52.2 26.481 115.508 15.427 171.285-12.177 61.396-47.405 103.951-100.994 134.295-53.557 30.326-114.006 46.792-174.938 53.353a484.229 484.229 0 0 1-17.665 1.582c-132.686 9.436-312.418-25.753-366.917-165.396a284.785 284.785 0 0 1-1.466-3.848 207.861 207.861 0 0 1-11.341-48.278c-6.67-58.441-.633-123.821 16.334-180.123 11.409-37.903 39.135-71.132 69.049-95.472 42.028-34.194 95.281-45.697 148.557-52.948 39.451-5.368 83.959-9.294 122.427 3.419a228.244 228.244 0 0 1 31.495 13.199Z" fill="url(#e)"/></g><path d="M467.175 455.624a7.483 7.483 0 0 0 9.797 4l15.69-6.592c7.987-3.356 16.647-4.84 25.29-4.239 2.577.18 5.245-.308 7.754-1.565 6.647-3.33 9.855-11.223 7.417-18.247-2.861-8.246-12.025-12.246-19.946-8.918a14.89 14.89 0 0 0-5.414 3.879c-5.792 6.561-12.832 11.904-20.901 15.294l-15.687 6.591a7.482 7.482 0 0 0-4 9.797Z" fill="#FB4C47"/><path d="M392.515 539.692a6.187 6.187 0 0 0-8.066 3.389l-5.319 13.027c-2.707 6.631-6.902 12.561-12.306 17.262a12.348 12.348 0 0 0-3.618 5.448c-1.939 5.833.799 12.323 6.331 15.004 6.494 3.148 14.189.129 16.874-6.447a12.316 12.316 0 0 0 .898-5.432c-.45-7.222.543-14.461 3.278-21.16l5.318-13.024a6.188 6.188 0 0 0-3.39-8.067ZM440.488 422.205a6.474 6.474 0 0 0 8.441-3.547l5.565-13.631c2.834-6.939 7.223-13.145 12.878-18.064a12.924 12.924 0 0 0 3.786-5.701c2.029-6.104-.837-12.895-6.625-15.701-6.795-3.294-14.849-.134-17.658 6.747a12.89 12.89 0 0 0-.939 5.685c.47 7.557-.568 15.132-3.43 22.142l-5.565 13.629a6.475 6.475 0 0 0 3.547 8.441Z" fill="#C63F3B"/><path d="M438.948 524.774a7.483 7.483 0 0 0-4.001 9.797l6.592 15.69c3.356 7.987 4.841 16.647 4.239 25.29a14.944 14.944 0 0 0 1.565 7.753c3.331 6.648 11.223 9.856 18.247 7.418 8.247-2.862 12.246-12.025 8.918-19.946a14.881 14.881 0 0 0-3.879-5.414c-6.561-5.792-11.903-12.832-15.293-20.901l-6.591-15.687a7.483 7.483 0 0 0-9.797-4Z" fill="#FB4C47"/><path d="M470.627 565.363c-6.561-5.793-11.904-12.832-15.294-20.901l-6.591-15.688a7.483 7.483 0 0 0-13.798 5.797l6.591 15.688c3.391 8.069 8.733 15.108 15.294 20.901a14.881 14.881 0 0 1 3.879 5.414c2.144 5.103 1.243 10.719-1.871 14.836 2.222.288 4.53.084 6.751-.687 8.246-2.862 12.246-12.026 8.918-19.946a14.881 14.881 0 0 0-3.879-5.414Z" fill="#C63F3B"/><path d="M355.029 469.224c12.447-5.23 18.297-19.559 13.068-32.005-5.23-12.447-19.559-18.297-32.005-13.068-12.447 5.23-18.297 19.559-13.068 32.005 5.23 12.447 19.559 18.297 32.005 13.068Z" fill="#FF8F8C"/><path d="M336.097 424.15a24.42 24.42 0 0 0-6.445 3.979c10.295-.897 20.434 4.847 24.652 14.886 4.218 10.04 1.224 21.301-6.622 28.027a24.428 24.428 0 0 0 7.352-1.819c12.447-5.229 18.297-19.558 13.068-32.005-5.23-12.447-19.559-18.297-32.005-13.068Z" fill="#FB4C47"/><path d="M449.405 549.669c40.641-17.076 59.744-63.864 42.669-104.504-17.075-40.641-63.863-59.744-104.504-42.669-40.641 17.075-59.744 63.863-42.669 104.504 17.076 40.641 63.864 59.744 104.504 42.669Z" fill="#FB4C47"/><path d="M387.57 402.495a80.93 80.93 0 0 0-6.762 3.223c38.867-12.237 81.372 6.929 97.469 45.243 16.098 38.313.038 82.086-35.906 101.281a80.986 80.986 0 0 0 7.035-2.574c40.641-17.076 59.744-63.863 42.669-104.504C475 404.523 428.211 385.42 387.57 402.495Z" fill="#C63F3B"/><path d="M441.796 454.281c8.255-3.468 12.136-12.972 8.667-21.227-3.468-8.256-12.972-12.136-21.227-8.667-8.256 3.468-12.136 12.972-8.667 21.227 3.468 8.255 12.972 12.136 21.227 8.667Z" fill="#C63F3B"/><path d="M429.234 424.387a16.135 16.135 0 0 0-6.189 4.587c5.829.484 11.197 4.111 13.619 9.877 2.423 5.766 1.257 12.138-2.478 16.641a16.14 16.14 0 0 0 7.609-1.211c8.255-3.468 12.135-12.972 8.667-21.227-3.469-8.255-12.972-12.136-21.228-8.667ZM408.514 525.999c5.589-2.348 8.215-8.782 5.867-14.37-2.348-5.588-8.781-8.215-14.369-5.867-5.589 2.348-8.215 8.781-5.867 14.37 2.348 5.588 8.781 8.215 14.369 5.867Z" fill="#fff"/><path d="M497.278 523.422c7.62-3.202 11.202-11.975 8-19.595-3.202-7.62-11.974-11.202-19.595-8.001-7.62 3.202-11.202 11.975-8 19.595 3.202 7.62 11.974 11.202 19.595 8.001Z" fill="#FB4C47"/><path d="M485.683 495.827a14.894 14.894 0 0 0-6.122 4.749c5.125.654 9.773 3.942 11.919 9.049 2.145 5.106 1.241 10.728-1.879 14.846 2.523.322 5.162.008 7.676-1.048 7.621-3.202 11.202-11.975 8.001-19.595-3.202-7.62-11.975-11.203-19.595-8.001ZM369.791 496.54a7.483 7.483 0 0 1-4 9.798l-15.689 6.592c-7.988 3.356-15.109 8.502-20.729 15.096a14.928 14.928 0 0 1-6.545 4.442c-7.031 2.417-14.913-.816-18.224-7.473-3.887-7.816-.329-17.16 7.591-20.488a14.897 14.897 0 0 1 6.56-1.152c8.74.455 17.483-.833 25.552-4.224l15.688-6.591a7.481 7.481 0 0 1 9.796 4Z" fill="#C63F3B"/><path d="M398.035 427.389a7.483 7.483 0 0 0 4.001-9.797l-6.593-15.69c-3.355-7.987-4.84-16.647-4.238-25.29a14.94 14.94 0 0 0-1.566-7.754c-3.33-6.647-11.222-9.855-18.247-7.417-8.246 2.861-12.246 12.025-8.918 19.946a14.895 14.895 0 0 0 3.88 5.414c6.561 5.792 11.903 12.832 15.293 20.901l6.592 15.687a7.481 7.481 0 0 0 9.796 4Z" fill="#FB4C47"/><path d="M389.64 368.858c-3.33-6.647-11.222-9.855-18.247-7.417a14.913 14.913 0 0 0-7.046 5.11c4.807.623 9.218 3.559 11.496 8.104a14.938 14.938 0 0 1 1.565 7.754c-.602 8.643.883 17.303 4.239 25.29l6.592 15.69a7.482 7.482 0 0 0 9.797 4 7.482 7.482 0 0 0 4-9.797l-6.592-15.69c-3.356-7.987-4.84-16.647-4.238-25.29a14.93 14.93 0 0 0-1.566-7.754ZM514.738 420.452a14.885 14.885 0 0 0-5.481 3.777c-.26.284-.526.563-.792.842 5.438.77 10.291 4.514 12.147 10.198 1.588 4.862.495 10.085-2.525 13.915.298.021.597.039.895.065a14.921 14.921 0 0 0 7.777-1.422c6.704-3.206 10.054-11.034 7.747-18.097-2.708-8.294-11.792-12.458-19.768-9.278Z" fill="#C63F3B"/><g opacity=".63"><path d="M573.882 595.025a3.81 3.81 0 0 0 5.31.906l7.069-5.006a28.203 28.203 0 0 1 12.1-4.897 7.604 7.604 0 0 0 3.68-1.633c2.936-2.389 3.659-6.665 1.673-9.886a7.618 7.618 0 0 0-13.158.294c-2.154 3.899-5.063 7.331-8.699 9.906l-7.068 5.006a3.809 3.809 0 0 0-.907 5.31Z" fill="#FFC700"/><path d="M540.189 635.854a3.15 3.15 0 0 0-3.634 2.574l-1.206 7.06a23.31 23.31 0 0 1-4.211 9.936 6.274 6.274 0 0 0-1.196 3.106c-.32 3.113 1.756 6.035 4.801 6.757a6.298 6.298 0 0 0 7.52-7.863c-1.02-3.54-1.325-7.246-.705-10.877l1.206-7.058a3.151 3.151 0 0 0-2.575-3.635ZM551.068 572.179a3.295 3.295 0 0 0 3.803-2.693l1.262-7.388a24.39 24.39 0 0 1 4.406-10.397 6.573 6.573 0 0 0 1.252-3.251c.335-3.257-1.838-6.315-5.024-7.071a6.591 6.591 0 0 0-7.87 8.229c1.068 3.704 1.387 7.582.739 11.382l-1.262 7.386a3.296 3.296 0 0 0 2.694 3.803Z" fill="#D09700"/><path d="M561.613 623.32a3.81 3.81 0 0 0-.907 5.31l5.007 7.07a28.194 28.194 0 0 1 4.897 12.099 7.603 7.603 0 0 0 1.633 3.681c2.389 2.936 6.664 3.659 9.886 1.672a7.617 7.617 0 0 0 2.231-10.895 7.582 7.582 0 0 0-2.525-2.263c-3.899-2.154-7.331-5.063-9.906-8.699l-5.006-7.068a3.81 3.81 0 0 0-5.31-.907Z" fill="#FFC700"/><path d="M581.835 639.993c-3.9-2.155-7.331-5.064-9.906-8.699l-5.006-7.069a3.809 3.809 0 1 0-6.217 4.403l5.006 7.069c2.575 3.635 6.006 6.544 9.906 8.699a7.615 7.615 0 0 1 3.232 9.841 7.518 7.518 0 0 0 3.279-1.086 7.62 7.62 0 0 0-.294-13.158ZM513.789 604.973c5.608-3.971 6.934-11.737 2.962-17.345-3.972-5.608-11.737-6.934-17.345-2.963-5.608 3.972-6.935 11.738-2.963 17.346 3.972 5.608 11.738 6.934 17.346 2.962Z" fill="#D09700"/><path d="M499.406 584.665a12.459 12.459 0 0 0-2.764 2.688c5.017-1.581 10.689.154 13.893 4.678 3.204 4.523 2.958 10.449-.199 14.657a12.42 12.42 0 0 0 3.453-1.715c5.608-3.972 6.935-11.737 2.963-17.345-3.972-5.608-11.738-6.934-17.346-2.963Z" fill="#FFC700"/><path d="M569.556 634.537c18.311-12.968 22.642-38.326 9.673-56.638-12.969-18.311-38.327-22.642-56.638-9.673s-22.642 38.327-9.673 56.638c12.969 18.312 38.326 22.642 56.638 9.673Z" fill="#FFC700"/><path d="M522.597 568.225a41.323 41.323 0 0 0-3.004 2.348c17.963-10.369 41.2-5.534 53.426 11.729 12.226 17.263 9.075 40.786-6.668 54.29a41.436 41.436 0 0 0 3.211-2.055c18.312-12.969 22.643-38.327 9.674-56.638-12.969-18.312-38.327-22.643-56.639-9.674Z" fill="#D09700"/><path d="M550.679 590.759a3.004 3.004 0 1 0-3.473-4.903 3.004 3.004 0 0 0 3.473 4.903ZM546.622 627.287a5.588 5.588 0 0 0-6.458-9.119 5.587 5.587 0 1 0 6.458 9.119ZM528.987 603.846a8.554 8.554 0 1 0-9.89-13.96 8.554 8.554 0 0 0 9.89 13.96Z" fill="#fff"/><path d="M590.446 616.213a7.618 7.618 0 0 0 1.814-10.62 7.618 7.618 0 0 0-10.62-1.814 7.618 7.618 0 0 0-1.814 10.62 7.618 7.618 0 0 0 10.62 1.814Z" fill="#FFC700"/><path d="M581.641 603.779a7.596 7.596 0 0 0-2.518 3.036 7.616 7.616 0 0 1 7.626 10.766 7.62 7.62 0 1 0-5.108-13.802ZM524.137 616.919a3.809 3.809 0 0 1-.907 5.31l-7.069 5.007a28.195 28.195 0 0 0-8.635 9.789 7.594 7.594 0 0 1-2.762 2.929c-3.228 1.977-7.501 1.24-9.881-1.703a7.618 7.618 0 0 1 4.645-12.314c4.393-.738 8.596-2.343 12.231-4.918l7.069-5.006a3.808 3.808 0 0 1 5.309.906Z" fill="#D09700"/><path d="M530.539 579.443a3.81 3.81 0 0 0 .907-5.31l-5.007-7.069a28.203 28.203 0 0 1-4.897-12.1 7.604 7.604 0 0 0-1.633-3.68c-2.388-2.936-6.664-3.659-9.886-1.673a7.62 7.62 0 0 0 .294 13.158c3.9 2.155 7.331 5.063 9.906 8.699l5.006 7.068a3.809 3.809 0 0 0 5.31.907Z" fill="#FFC700"/><path d="M519.907 551.284c-2.389-2.936-6.664-3.659-9.886-1.673a7.596 7.596 0 0 0-2.938 3.317c2.458-.22 4.974.752 6.607 2.759a7.603 7.603 0 0 1 1.633 3.681 28.194 28.194 0 0 0 4.897 12.099l5.007 7.07a3.81 3.81 0 0 0 6.217-4.403l-5.007-7.07a28.2 28.2 0 0 1-4.897-12.099 7.603 7.603 0 0 0-1.633-3.681Z" fill="#D09700"/></g><path d="M625.172 511.392a4.382 4.382 0 0 0-5.265 3.271l-2.267 9.706c-1.154 4.942-3.427 9.559-6.683 13.45a8.76 8.76 0 0 0-1.924 4.215c-.705 4.298 1.935 8.532 6.104 9.791a8.767 8.767 0 0 0 11.107-10.295c-1.12-5.002-1.234-10.177-.068-15.169l2.267-9.704a4.383 4.383 0 0 0-3.271-5.265Z" fill="#1DB776"/><path d="M610.973 447.088a3.624 3.624 0 0 0 1.165-4.99l-4.349-7.001a26.825 26.825 0 0 1-3.956-11.77 7.227 7.227 0 0 0-1.34-3.588c-2.1-2.925-6.118-3.857-9.292-2.156a7.248 7.248 0 0 0-.475 12.512c3.579 2.269 6.671 5.228 8.907 8.828l4.349 6.999a3.625 3.625 0 0 0 4.991 1.166ZM650.196 510.223a3.792 3.792 0 0 0-1.22 5.222l4.551 7.326a28.069 28.069 0 0 1 4.139 12.316 7.561 7.561 0 0 0 1.403 3.755c2.197 3.061 6.402 4.036 9.723 2.256a7.584 7.584 0 0 0 .497-13.093c-3.745-2.375-6.98-5.471-9.321-9.238l-4.55-7.324a3.792 3.792 0 0 0-5.222-1.22Z" fill="#128E5A"/><path d="M602.083 474.233a4.383 4.383 0 0 0-3.271-5.265l-9.707-2.267c-4.941-1.155-9.558-3.428-13.45-6.684a8.74 8.74 0 0 0-4.215-1.923c-4.297-.706-8.531 1.934-9.79 6.103a8.766 8.766 0 0 0 10.294 11.107c5.002-1.12 10.177-1.233 15.169-.067l9.705 2.267a4.384 4.384 0 0 0 5.265-3.271Z" fill="#1DB776"/><path d="M571.946 475.305c5.002-1.121 10.177-1.234 15.169-.068l9.705 2.267a4.384 4.384 0 0 0 1.994-8.536l-9.705-2.267c-4.992-1.166-10.167-1.053-15.169.068a8.727 8.727 0 0 1-3.901-.022 8.76 8.76 0 0 1-6.393-5.987 8.65 8.65 0 0 0-1.994 3.438 8.765 8.765 0 0 0 6.393 11.085 8.727 8.727 0 0 0 3.901.022ZM657.274 453.534c-1.799 7.7 2.985 15.401 10.685 17.199 7.7 1.799 15.4-2.985 17.199-10.685 1.799-7.7-2.985-15.401-10.685-17.199-7.701-1.799-15.401 2.985-17.199 10.685Z" fill="#128E5A"/><path d="M685.16 460.049c.348-1.489.447-2.977.329-4.424-3.114 5.191-9.323 8.024-15.534 6.574-6.211-1.451-10.522-6.742-11.014-12.775a14.29 14.29 0 0 0-1.665 4.112c-1.799 7.7 2.985 15.4 10.685 17.199 7.7 1.799 15.401-2.986 17.199-10.686Z" fill="#1DB776"/><path d="M586.681 470.637c-5.873 25.142 9.748 50.285 34.891 56.158 25.142 5.873 50.285-9.748 56.158-34.891 5.873-25.142-9.748-50.285-34.891-56.158-25.142-5.873-50.285 9.748-56.158 34.891Z" fill="#1DB776"/><path d="M677.739 491.903c.336-1.439.598-2.878.796-4.314-7.558 22.638-31.258 36.206-54.961 30.669-23.703-5.536-38.94-28.2-35.687-51.843a47.181 47.181 0 0 0-1.197 4.221c-5.873 25.143 9.748 50.285 34.89 56.158 25.143 5.873 50.286-9.748 56.159-34.891Z" fill="#128E5A"/><path d="M634.529 499.818a9.496 9.496 0 0 0 7.087 11.407 9.496 9.496 0 0 0 11.407-7.087 9.496 9.496 0 0 0-7.087-11.407 9.496 9.496 0 0 0-11.407 7.087Z" fill="#128E5A"/><path d="M653.033 504.137c.36-1.54.32-3.08-.048-4.512a9.492 9.492 0 0 1-9.365 3.063 9.493 9.493 0 0 1-7.04-6.895 9.497 9.497 0 1 0 16.453 8.344ZM611.964 459.38a6.429 6.429 0 1 0 12.521 2.923 6.429 6.429 0 0 0-12.521-2.923Z" fill="#fff"/><path d="M582.671 502.36a8.767 8.767 0 0 0 6.543 10.531 8.766 8.766 0 0 0 10.531-6.543 8.767 8.767 0 1 0-17.074-3.988Z" fill="#1DB776"/><path d="M599.749 506.347a8.732 8.732 0 0 0-.148-4.536 8.761 8.761 0 0 1-8.389 2.542 8.76 8.76 0 0 1-6.395-5.996 8.767 8.767 0 1 0 14.932 7.99ZM639.244 451.147a4.383 4.383 0 0 1-3.271-5.265l2.267-9.707c1.154-4.941 1.162-10.087-.033-15.019a8.738 8.738 0 0 1 .143-4.631c1.271-4.165 5.513-6.791 9.808-6.073a8.766 8.766 0 0 1 5.398 14.149c-3.22 3.989-5.615 8.578-6.781 13.57l-2.267 9.705a4.382 4.382 0 0 1-5.264 3.271Z" fill="#128E5A"/><path d="M662.332 488.307a4.383 4.383 0 0 0 3.271 5.265l9.707 2.268c4.941 1.154 9.558 3.427 13.45 6.683a8.74 8.74 0 0 0 4.215 1.923c4.297.706 8.531-1.934 9.79-6.103a8.767 8.767 0 0 0-10.294-11.107c-5.003 1.12-10.177 1.234-15.169.068l-9.705-2.267a4.382 4.382 0 0 0-5.265 3.27Z" fill="#1DB776"/><path d="M692.973 504.444c4.298.706 8.532-1.934 9.791-6.103a8.746 8.746 0 0 0-.001-5.098c-1.949 2.065-4.857 3.148-7.796 2.665a8.744 8.744 0 0 1-4.215-1.923c-3.891-3.256-8.509-5.529-13.45-6.683l-9.706-2.268a4.383 4.383 0 0 0-1.994 8.536l9.706 2.268c4.942 1.154 9.559 3.427 13.45 6.683a8.749 8.749 0 0 0 4.215 1.923ZM626.221 545.437c.309-1.326.3-2.653.021-3.899-.049-.22-.094-.442-.14-.663a8.756 8.756 0 0 1-8.97 2.42c-2.868-.866-5.011-3.14-5.84-5.875-.11.136-.218.274-.331.408a8.744 8.744 0 0 0-1.922 4.214c-.705 4.295 1.933 8.527 6.101 9.786a8.763 8.763 0 0 0 11.081-6.391Z" fill="#128E5A"/><defs><linearGradient id="b" x1="161.059" y1="668.687" x2="210.076" y2="804.827" gradientUnits="userSpaceOnUse"><stop stop-color="#FFD8D8"/><stop offset="1" stop-color="#FFF8F8"/></linearGradient><linearGradient id="c" x1="807.47" y1="323.694" x2="370.853" y2="86.345" gradientUnits="userSpaceOnUse"><stop stop-color="#FFF8F8"/><stop offset="1" stop-color="#FFCFCF"/></linearGradient><linearGradient id="d" x1="788.658" y1="260.028" x2="630.938" y2="204.506" gradientUnits="userSpaceOnUse"><stop stop-color="#FFD7D7"/><stop offset="1" stop-color="#FFF9F9"/></linearGradient><linearGradient id="e" x1="782.235" y1="694.48" x2="142.067" y2="377.53" gradientUnits="userSpaceOnUse"><stop stop-color="#FFCFCF"/><stop offset="1" stop-color="#FFF8F8"/></linearGradient><filter id="a" x="306.154" y="403.22" width="162.392" height="161.198" filterUnits="userSpaceOnUse" color-interpolation-filters="sRGB"><feFlood flood-opacity="0" result="BackgroundImageFix"/><feColorMatrix in="SourceAlpha" values="0 0 0 0 0 0 0 0 0 0 0 0 0 0 0 0 0 0 127 0" result="hardAlpha"/><feOffset dy="2"/><feGaussianBlur stdDeviation="10.5"/><feColorMatrix values="0 0 0 0 0.966667 0 0 0 0 0.864839 0 0 0 0 0.890296 0 0 0 1 0"/><feBlend in2="BackgroundImageFix" result="effect1_dropShadow_1_1596"/><feBlend in="SourceGraphic" in2="effect1_dropShadow_1_1596" result="shape"/></filter></defs></svg>